PathFileType	3	(X/Y/Z)	RCH0000002 BBF 08.c3d
DataRate	CameraRate	NumFrames	NumMarkers	Units	OrigDataRate	OrigDataStartFrame	OrigNumFrames
100.0	100.0	17	23	mm	100.0	370	516
Frame#	Time	MAN			LASI			RASI			LPAT			LKNE			LANK			LMED			LTOE			RKNE			RANK			RMED			RHEE			RTOE			LHEE			RPAT			RPSI			T2			LPSI			T10			RTHI			LTHI			RTIB			LTIB			
		X1	Y1	Z1	X2	Y2	Z2	X3	Y3	Z3	X4	Y4	Z4	X5	Y5	Z5	X6	Y6	Z6	X7	Y7	Z7	X8	Y8	Z8	X9	Y9	Z9	X10	Y10	Z10	X11	Y11	Z11	X12	Y12	Z12	X13	Y13	Z13	X14	Y14	Z14	X15	Y15	Z15	X16	Y16	Z16	X17	Y17	Z17	X18	Y18	Z18	X19	Y19	Z19	X20	Y20	Z20	X21	Y21	Z21	X22	Y22	Z22	X23	Y23	Z23	

370	3.690	867.52448	57.89419	969.07561	827.21357	91.61242	656.29040	844.50939	-82.04787	680.51515	891.44306	70.45371	399.03131	835.64831	121.53229	363.06886	677.60721	131.59389	145.46739	701.82045	63.28941	143.62571	725.95061	110.46816	114.33071	776.66099	-75.74382	358.43097	720.51781	-63.82439	88.13065	694.05022	-2.79527	107.38209	670.68423	-50.33222	125.34857	752.14155	-15.58622	76.36375	665.85353	80.97591	179.29396	814.01575	-16.88279	393.05322	731.85221	-34.81505	729.17547	737.74120	39.65010	996.33953	724.45395	34.41246	717.83905	746.61585	18.14330	812.65376	817.93404	-148.69876	459.99648	806.00621	182.38700	488.96144	762.43419	-137.08218	236.75777	758.55155	186.13480	283.60198	
371	3.700	877.78447	59.10588	969.87245	838.70833	90.36560	657.56666	852.45144	-83.76247	681.87079	909.80789	69.60030	404.30153	856.04648	121.25592	366.72738	705.65820	133.48011	144.02919	729.18028	64.94999	142.67031	754.91565	111.94184	114.61641	777.92948	-77.80425	359.56134	721.43409	-63.90121	89.02965	695.80346	-2.77345	108.74389	671.91879	-50.09312	126.67052	753.40108	-15.85983	76.71341	692.04794	82.97505	177.12694	816.44846	-19.31359	393.28806	740.79326	-34.08323	729.87829	748.20061	40.51884	997.70694	734.54991	35.23217	718.35521	755.96348	18.22233	814.01393	820.92272	-150.54801	460.59266	822.88468	182.20136	491.62907	762.26294	-138.62559	237.45495	782.48926	186.84607	284.97359	
372	3.710	888.12957	60.19129	970.02946	850.20606	89.25685	658.18534	860.36738	-85.26310	682.73451	927.85253	68.50067	408.93937	876.30127	120.74553	369.76114	734.48682	135.33072	142.00802	757.03588	66.52167	141.24754	784.47000	113.11303	114.40241	779.66187	-79.51553	360.42987	722.26763	-63.95555	89.81409	697.47646	-2.70871	109.97731	673.12267	-49.80448	127.93301	754.57787	-16.12400	76.97900	718.81887	85.10623	174.36965	819.33806	-21.40445	393.23759	749.69534	-33.07535	729.95704	758.71187	41.27416	998.51730	744.61076	36.30504	718.13243	765.26153	18.55562	814.75702	824.14367	-152.09295	460.95148	839.57713	181.88197	493.54328	762.41071	-139.88974	238.01394	806.93224	187.46345	285.66828	
373	3.720	898.54482	61.17399	969.56746	861.74871	88.26576	658.14136	868.32368	-86.56154	683.12547	945.44689	67.06963	412.85445	896.26392	119.93262	372.11426	763.97283	137.04113	139.39168	785.28703	67.91206	139.28963	814.50196	113.92491	113.67140	781.89113	-80.90206	361.03017	722.99507	-63.97532	90.48439	699.05060	-2.59031	111.07996	674.27602	-49.45318	129.13649	755.64991	-16.36546	77.15923	746.06674	87.23172	170.95947	822.69920	-23.15662	392.89310	758.61864	-31.81549	729.44416	769.25053	41.97385	998.75743	754.69470	37.60661	717.20412	774.54792	19.16540	814.87733	827.67185	-153.35331	461.06168	856.07215	181.37158	494.68575	762.88430	-140.88596	238.42076	831.70310	187.88854	285.68107	
374	3.730	909.01360	62.08354	968.52792	873.37880	87.37260	657.45668	876.39392	-87.67235	683.07158	962.47099	65.22119	415.96697	915.79302	118.75319	373.74178	793.94230	138.49022	136.17831	813.78035	69.01478	136.74701	844.84404	114.30571	112.41554	784.65037	-81.98772	361.36280	723.60712	-63.94979	91.05108	700.52174	-2.40949	112.05928	675.37413	-49.02808	130.29130	756.60520	-16.57025	77.25590	773.64263	89.20055	166.85684	826.54491	-24.57335	392.25426	767.63034	-30.33962	728.38568	779.79255	42.67594	998.43060	764.86493	39.10187	715.62683	783.86637	20.05533	814.38795	831.58827	-154.34719	460.91556	872.38186	180.61831	495.06051	763.69235	-141.62872	238.67096	856.60250	188.01923	285.00578	
375	3.740	919.51942	62.95309	966.96979	885.13648	86.56026	656.17686	884.65507	-88.61177	682.60662	978.82585	62.88008	418.21101	934.76398	117.15528	374.61011	824.15648	139.54878	132.38261	842.30054	69.71684	133.59863	875.26235	114.17514	110.63962	787.97664	-82.79787	361.43294	724.11548	-63.87580	91.53195	701.90480	-2.16631	112.93171	676.43456	-48.52897	131.41615	757.44607	-16.72876	77.27217	801.33901	90.85844	162.05764	830.89512	-25.66628	391.32649	776.80081	-28.69282	726.83821	790.31615	43.43392	997.55482	775.18533	40.74821	713.47570	793.26551	21.21063	813.31877	835.97457	-155.09430	460.50975	888.53480	179.58028	494.69056	764.85361	-142.13893	238.76798	881.41442	187.75868	283.63816	
376	3.750	930.04744	63.81659	964.96598	897.05630	85.81568	654.36744	893.18317	-89.39699	681.76731	994.44183	59.99498	419.53977	953.07544	115.10725	374.69961	854.30439	140.09065	128.04122	870.56737	69.90914	129.85953	905.45211	113.45548	108.36409	791.91376	-83.36079	361.24759	724.55829	-63.76219	91.94854	703.23759	-1.87456	113.72071	677.50290	-47.97296	132.53550	758.19296	-16.83959	77.21081	828.88485	92.05851	156.60196	835.78337	-26.45978	390.11787	786.19914	-26.92686	724.86591	800.80346	44.29266	996.16132	785.71568	42.49799	710.83994	802.79724	22.59910	811.71431	840.90744	-155.61865	459.84567	904.56501	178.23055	493.61476	766.40417	-142.44595	238.72062	905.90867	187.02490	281.58251	
377	3.760	940.58557	64.70601	962.59964	909.16383	85.13089	652.11022	902.04898	-90.04541	680.59088	1009.28337	56.55177	419.93220	970.65193	112.60573	374.00903	884.00232	140.00638	123.21637	898.24026	69.49955	125.58471	935.04166	112.08602	105.62776	796.51391	-83.70795	360.81277	725.00299	-63.63141	92.32264	704.58293	-1.56345	114.45397	678.65602	-47.39691	133.67640	758.88654	-16.91154	77.07249	855.94754	92.67310	150.57794	841.26062	-26.99236	388.63614	795.88837	-25.09796	722.53781	811.24151	45.28527	994.29290	796.50682	44.30061	707.81873	812.51450	24.17296	809.63176	846.45401	-155.94963	458.92933	920.49932	176.56232	491.88564	768.40233	-142.58777	238.54009	929.84145	185.76057	278.85992	
378	3.770	951.12513	65.64867	959.96058	921.47247	84.50376	649.50008	911.31404	-90.57368	679.11318	1023.34941	52.58481	419.39956	987.44256	109.68257	372.56089	912.80301	139.21862	117.99712	924.93138	68.42761	120.86854	963.60596	110.03918	102.48933	801.83725	-83.87291	360.13122	725.54575	-63.51802	92.67339	706.02853	-1.27567	115.16028	680.00195	-46.85491	134.86537	759.58782	-16.96328	76.85481	882.14333	92.60646	144.12014	847.39527	-27.31476	386.88655	805.92102	-23.26521	719.92568	821.62284	46.43104	992.00276	807.59596	46.10385	704.51784	822.46839	25.87139	807.13911	852.66902	-156.12123	457.77067	936.34472	174.59385	489.56859	770.92965	-142.60899	238.23718	952.95616	183.94298	275.51610	
379	3.780	961.66094	66.66485	957.14195	933.98056	83.93844	646.64198	921.02742	-90.99647	677.36758	1036.66913	48.18421	417.99050	1003.41629	106.40957	370.40646	940.21645	137.69782	112.49789	950.22709	66.67909	115.84001	990.68990	107.33534	99.02740	807.94970	-83.88913	359.20119	726.30739	-63.46414	93.01573	707.68443	-1.06210	115.86664	681.67616	-46.41134	136.12567	760.37608	-17.02095	76.55233	907.05695	91.80840	137.40245	854.26951	-27.48524	384.87082	816.33529	-21.48927	717.10251	831.94537	47.73449	989.35338	819.00300	47.85461	701.04705	832.70497	27.62352	804.31368	859.59416	-156.16921	456.38236	952.07816	172.37260	486.74244	774.08797	-142.55693	237.82010	974.98716	181.59309	271.62659	
380	3.790	972.19094	67.76586	954.23728	946.66929	83.44566	643.64837	931.22337	-91.32490	675.38482	1049.29370	43.49765	415.79336	1018.55483	102.90023	367.62918	965.74253	135.47624	106.85427	973.71641	64.29827	110.65445	1015.84004	104.05367	95.33847	814.91883	-83.78715	358.01660	727.42630	-63.51307	93.36032	709.67805	-0.97411	116.59595	683.83443	-46.13081	137.47551	761.34495	-17.11428	76.15777	930.26980	90.28756	130.62662	861.97245	-27.56297	382.58792	827.15227	-19.83124	714.14168	842.21193	49.18541	986.41571	830.72778	49.49937	697.51819	843.26185	29.35195	801.24068	867.25933	-156.12720	454.77865	967.64009	169.97766	483.50110	777.99236	-142.47665	237.29360	995.66890	178.78274	267.29825	
381	3.800	982.71538	68.95278	951.33810	959.50158	83.04267	640.63637	941.91990	-91.56485	673.19372	1061.28487	38.72568	412.93444	1032.84446	99.30754	364.34508	988.91321	132.65732	101.21634	995.02374	61.39544	105.48261	1038.64166	100.33614	91.53287	822.80858	-83.59181	356.56888	729.04925	-63.70221	93.71507	712.14740	-1.05516	117.36580	686.64287	-46.06688	138.92735	762.59731	-17.27217	75.66452	951.39427	88.12241	124.00765	870.59104	-27.60078	380.03642	838.37443	-18.35127	711.11654	852.42928	50.75962	983.26837	842.74905	50.98482	694.04352	854.16506	30.97665	798.01193	875.68513	-156.02218	452.97452	982.93296	167.51951	479.95541	782.76122	-142.40581	236.65970	1014.75163	175.63821	262.66632	
382	3.810	993.23570	70.21591	948.53193	972.42252	82.75272	637.72470	953.11822	-91.71543	670.82272	1072.70221	34.11024	409.57217	1046.26826	95.81738	360.69965	1009.33940	129.41770	95.74002	1013.84202	58.14701	100.49845	1058.75691	96.38262	87.72877	831.67334	-83.32011	354.85024	731.32139	-64.05690	94.08798	715.23301	-1.33325	118.18831	690.26637	-46.25201	140.48831	764.24014	-17.51881	75.07013	970.11007	85.46692	117.75766	880.20031	-27.63867	377.21846	849.98553	-17.10668	708.10037	862.60679	52.42058	979.99664	855.02507	52.25902	690.73391	865.42631	32.41909	794.72430	884.88552	-155.87072	450.98572	997.82501	165.13605	476.23373	788.50498	-142.37032	235.92005	1032.02262	172.33820	257.88747	
383	3.820	1003.75330	71.53500	945.90080	985.36130	82.60401	635.02988	964.80281	-91.76800	668.30196	1083.59071	29.91718	405.88723	1058.80014	92.63727	356.86068	1026.75533	125.99908	90.57683	1029.96201	54.78641	95.86676	1075.95852	92.43658	84.04455	841.55235	-82.98018	352.85803	734.37667	-64.58633	94.49066	719.06958	-1.81581	119.07126	694.85643	-46.69066	142.16162	766.38004	-17.87125	74.38032	986.19734	82.54779	112.06986	890.85432	-27.69911	374.14451	861.95175	-16.14915	705.16624	872.75511	54.12132	976.69118	867.49606	53.27352	687.69676	877.04109	33.60665	791.47774	894.86981	-155.67670	448.82988	1012.15882	162.98458	472.48017	795.31531	-142.38173	235.07963	1047.32945	169.10465	253.12957	
384	3.830	1014.26829	72.88035	943.51993	998.23490	82.62793	632.66176	976.94205	-91.70607	665.66562	1093.97078	26.41395	402.06977	1070.40183	89.98108	353.00771	1041.05209	122.68899	85.86295	1043.29306	51.58516	91.73161	1090.15386	88.76243	80.59050	852.46510	-82.57162	350.59963	738.32981	-65.28247	94.94187	723.77797	-2.48802	120.01994	700.53980	-47.35707	143.94856	769.12020	-18.33874	73.61297	999.56076	79.65033	107.10399	902.57914	-27.78504	370.83833	874.22409	-15.52129	702.38659	882.88467	55.80687	973.44612	880.08824	53.98653	685.03307	888.98776	34.47695	788.37276	905.64306	-155.43115	446.52886	1025.76385	161.22963	468.84960	803.25643	-142.43678	234.15129	1060.60004	166.18604	248.55926	
385	3.840	1024.77848	74.21460	941.45671	1010.95330	82.85656	630.71843	989.48930	-91.50622	662.95409	1103.83236	23.84495	398.30512	1081.02326	88.05055	349.31904	1052.29268	119.79118	81.70844	1053.87224	48.82536	88.20662	1101.39466	85.61719	77.46074	864.40846	-82.08705	348.09701	743.27072	-66.12202	95.47013	729.45846	-3.31481	121.03947	707.40898	-48.19821	145.85065	772.55912	-18.92399	72.80116	1010.23980	77.09204	102.97450	915.36892	-27.88061	367.34128	886.74153	-15.25249	699.83216	893.00440	57.41698	970.35656	892.71929	54.36688	682.83386	901.22782	34.98204	785.50728	917.20485	-155.11424	444.11192	1038.47141	160.02783	465.49912	812.35974	-142.51921	233.15996	1071.85342	163.83403	244.32838	
386	3.850	1035.27865	75.49516	939.76958	1023.42569	83.31970	629.28085	1002.38428	-91.14022	660.21556	1113.13422	22.40702	394.75989	1090.60657	87.01567	345.95794	1060.70381	117.58899	78.18826	1061.85971	46.76661	85.36774	1109.87024	83.22085	74.72659	877.35584	-81.51463	345.39013	749.26170	-67.07082	96.11468	736.18589	-4.24625	122.13683	715.51560	-49.14114	147.87127	776.79091	-19.62571	71.99459	1018.40264	75.18549	99.74265	929.18529	-27.95447	363.71498	899.43484	-15.35489	697.57032	903.12070	58.88917	967.51546	905.30448	54.39830	681.17603	913.70735	35.09201	782.97278	929.54664	-154.69915	441.61909	1050.13048	159.51159	462.57676	822.62245	-142.60341	232.14585	1081.19683	162.27625	240.56085	
